#extradata 0:      100, 0xee3e15e9
#extradata 1:      100, 0xee3e15e9
#extradata 2:      100, 0xee3e15e9
#extradata 3:      100, 0xee3e15e9
#tb 0: 1/1
#media_type 0: video
#codec_id 0: hevc
#dimensions 0: 1280x720
#sar 0: 0/1
#tb 1: 1/1
#media_type 1: video
#codec_id 1: hevc
#dimensions 1: 1280x720
#sar 1: 0/1
#tb 2: 1/1
#media_type 2: video
#codec_id 2: hevc
#dimensions 2: 1280x720
#sar 2: 0/1
#tb 3: 1/1
#media_type 3: video
#codec_id 3: hevc
#dimensions 3: 1280x720
#sar 3: 0/1
0,          0,          0,        1,   111554, 0xa0679859
1,          0,          0,        1,   111481, 0xc5386eaf
2,          0,          0,        1,   111451, 0xdbde88de
3,          0,          0,        1,   111353, 0x26435c8c
[STREAM_GROUP]
index=0
id=0x3f1
nb_streams=4
type=Tile Grid
[COMPONENT]
nb_tiles=4
coded_width=2560
coded_height=1440
horizontal_offset=0
vertical_offset=0
width=2560
height=1440
[SUBCOMPONENT]
stream_index=0
tile_horizontal_offset=0
tile_vertical_offset=0
[/SUBCOMPONENT]
[SUBCOMPONENT]
stream_index=1
tile_horizontal_offset=1280
tile_vertical_offset=0
[/SUBCOMPONENT]
[SUBCOMPONENT]
stream_index=2
tile_horizontal_offset=0
tile_vertical_offset=720
[/SUBCOMPONENT]
[SUBCOMPONENT]
stream_index=3
tile_horizontal_offset=1280
tile_vertical_offset=720
[/SUBCOMPONENT]
[/COMPONENT]
DISPOSITION:default=1
DISPOSITION:dub=0
DISPOSITION:original=0
DISPOSITION:comment=0
DISPOSITION:lyrics=0
DISPOSITION:karaoke=0
DISPOSITION:forced=0
DISPOSITION:hearing_impaired=0
DISPOSITION:visual_impaired=0
DISPOSITION:clean_effects=0
DISPOSITION:attached_pic=0
DISPOSITION:timed_thumbnails=0
DISPOSITION:non_diegetic=0
DISPOSITION:captions=0
DISPOSITION:descriptions=0
DISPOSITION:metadata=0
DISPOSITION:dependent=0
DISPOSITION:still_image=0
DISPOSITION:multilayer=0
TAG:title=Derived image
[STREAM]
index=0
id=0x3ea
DISPOSITION:default=0
DISPOSITION:dub=0
DISPOSITION:original=0
DISPOSITION:comment=0
DISPOSITION:lyrics=0
DISPOSITION:karaoke=0
DISPOSITION:forced=0
DISPOSITION:hearing_impaired=0
DISPOSITION:visual_impaired=0
DISPOSITION:clean_effects=0
DISPOSITION:attached_pic=0
DISPOSITION:timed_thumbnails=0
DISPOSITION:non_diegetic=0
DISPOSITION:captions=0
DISPOSITION:descriptions=0
DISPOSITION:metadata=0
DISPOSITION:dependent=1
DISPOSITION:still_image=0
DISPOSITION:multilayer=0
[/STREAM]
[STREAM]
index=1
id=0x3ec
DISPOSITION:default=0
DISPOSITION:dub=0
DISPOSITION:original=0
DISPOSITION:comment=0
DISPOSITION:lyrics=0
DISPOSITION:karaoke=0
DISPOSITION:forced=0
DISPOSITION:hearing_impaired=0
DISPOSITION:visual_impaired=0
DISPOSITION:clean_effects=0
DISPOSITION:attached_pic=0
DISPOSITION:timed_thumbnails=0
DISPOSITION:non_diegetic=0
DISPOSITION:captions=0
DISPOSITION:descriptions=0
DISPOSITION:metadata=0
DISPOSITION:dependent=1
DISPOSITION:still_image=0
DISPOSITION:multilayer=0
[/STREAM]
[STREAM]
index=2
id=0x3ee
DISPOSITION:default=0
DISPOSITION:dub=0
DISPOSITION:original=0
DISPOSITION:comment=0
DISPOSITION:lyrics=0
DISPOSITION:karaoke=0
DISPOSITION:forced=0
DISPOSITION:hearing_impaired=0
DISPOSITION:visual_impaired=0
DISPOSITION:clean_effects=0
DISPOSITION:attached_pic=0
DISPOSITION:timed_thumbnails=0
DISPOSITION:non_diegetic=0
DISPOSITION:captions=0
DISPOSITION:descriptions=0
DISPOSITION:metadata=0
DISPOSITION:dependent=1
DISPOSITION:still_image=0
DISPOSITION:multilayer=0
[/STREAM]
[STREAM]
index=3
id=0x3f0
DISPOSITION:default=0
DISPOSITION:dub=0
DISPOSITION:original=0
DISPOSITION:comment=0
DISPOSITION:lyrics=0
DISPOSITION:karaoke=0
DISPOSITION:forced=0
DISPOSITION:hearing_impaired=0
DISPOSITION:visual_impaired=0
DISPOSITION:clean_effects=0
DISPOSITION:attached_pic=0
DISPOSITION:timed_thumbnails=0
DISPOSITION:non_diegetic=0
DISPOSITION:captions=0
DISPOSITION:descriptions=0
DISPOSITION:metadata=0
DISPOSITION:dependent=1
DISPOSITION:still_image=0
DISPOSITION:multilayer=0
[/STREAM]
[/STREAM_GROUP]
